HIERARCHY
ROOT Bip001_Pelvis
{
  OFFSET 32.8599 95.8771 -27.9544
  CHANNELS 6 Xposition Yposition Zposition Zrotation Xrotation Yrotation
  JOINT Bip001_Spine
  {
    OFFSET 1.4188e-005 10.2191 -0.0116013
    CHANNELS 3 Zrotation Xrotation Yrotation
    JOINT Bip001_L_Thigh
    {
      OFFSET 11.0458 -10.2191 0.0116197
      CHANNELS 3 Zrotation Xrotation Yrotation
      JOINT Bip001_L_Calf
      {
        OFFSET -0.707118 -44.0221 0.360014
        CHANNELS 3 Zrotation Xrotation Yrotation
        JOINT Bip001_L_Foot
        {
          OFFSET -0.651902 -40.5938 -3.56146
          CHANNELS 3 Zrotation Xrotation Yrotation
          JOINT Bip001_L_Toe0
          {
            OFFSET 0.0530839 -10.2181 13.1504
            CHANNELS 3 Zrotation Xrotation Yrotation
            End Site
            {
              OFFSET -1.02532e-005 0 7.55606
            }
          }
        }
      }
    }
    JOINT Bip001_R_Thigh
    {
      OFFSET -11.0458 -10.2191 0.0115893
      CHANNELS 3 Zrotation Xrotation Yrotation
      JOINT Bip001_R_Calf
      {
        OFFSET 0.706994 -44.0221 0.35984
        CHANNELS 3 Zrotation Xrotation Yrotation
        JOINT Bip001_R_Foot
        {
          OFFSET 0.651787 -40.5938 -3.5613
          CHANNELS 3 Zrotation Xrotation Yrotation
          JOINT Bip001_R_Toe0
          {
            OFFSET -0.0531479 -10.2181 13.1504
            CHANNELS 3 Zrotation Xrotation Yrotation
            End Site
            {
              OFFSET -1.02894e-005 0 7.55606
            }
          }
        }
      }
    }
    JOINT Bip001_Spine1
    {
      OFFSET 1.87041e-005 14.5736 1.08638
      CHANNELS 3 Zrotation Xrotation Yrotation
      JOINT Bip001_Spine2
      {
        OFFSET 2.24614e-005 14.5058 -1.69078
        CHANNELS 3 Zrotation Xrotation Yrotation
        JOINT Bip001_Neck
        {
          OFFSET 2.20278e-005 15.3945 -0.489414
          CHANNELS 3 Zrotation Xrotation Yrotation
          JOINT Bip001_L_Clavicle
          {
            OFFSET 6.06036 -0.000579998 0.00836775
            CHANNELS 3 Zrotation Xrotation Yrotation
            JOINT Bip001_L_UpperArm
            {
              OFFSET 11.5509 -0.0600302 0.00193952
              CHANNELS 3 Zrotation Xrotation Yrotation
              JOINT Bip001_L_Forearm
              {
                OFFSET 25.9523 0.0806089 -2.15551
                CHANNELS 3 Zrotation Xrotation Yrotation
                JOINT Bip001_L_Hand
                {
                  OFFSET 32.2475 0.153767 1.63968
                  CHANNELS 3 Zrotation Xrotation Yrotation
                  JOINT Bip001_L_Finger0
                  {
                    OFFSET 6.04639 -2.20976 5.90322
                    CHANNELS 3 Zrotation Xrotation Yrotation
                    End Site
                    {
                      OFFSET 4.22375 -1.43895 0.606486
                    }
                  }
                  JOINT Bip001_L_Finger1
                  {
                    OFFSET 11.0826 -0.704819 -0.198153
                    CHANNELS 3 Zrotation Xrotation Yrotation
                    End Site
                    {
                      OFFSET 6.20027 -0.397518 -0.0787166
                    }
                  }
                }
              }
            }
          }
          JOINT Bip001_R_Clavicle
          {
            OFFSET -6.06036 -0.000563197 0.00835105
            CHANNELS 3 Zrotation Xrotation Yrotation
            JOINT Bip001_R_UpperArm
            {
              OFFSET -11.5509 -0.0599978 0.00190698
              CHANNELS 3 Zrotation Xrotation Yrotation
              JOINT Bip001_R_Forearm
              {
                OFFSET -25.9523 0.0806819 -2.1559
                CHANNELS 3 Zrotation Xrotation Yrotation
                JOINT Bip001_R_Hand
                {
                  OFFSET -32.2476 0.153857 1.63991
                  CHANNELS 3 Zrotation Xrotation Yrotation
                  JOINT Bip001_R_Finger0
                  {
                    OFFSET -6.04642 -2.20975 5.9032
                    CHANNELS 3 Zrotation Xrotation Yrotation
                    End Site
                    {
                      OFFSET -4.22376 -1.43894 0.606473
                    }
                  }
                  JOINT Bip001_R_Finger1
                  {
                    OFFSET -11.0826 -0.70479 -0.198183
                    CHANNELS 3 Zrotation Xrotation Yrotation
                    End Site
                    {
                      OFFSET -6.20028 -0.397501 -0.0787337
                    }
                  }
                }
              }
            }
          }
          JOINT Bip001_Head
          {
            OFFSET 1.09673e-005 11.2744 2.05948
            CHANNELS 3 Zrotation Xrotation Yrotation
            End Site
            {
              OFFSET 2.89576e-005 20.8808 -2.77728e-005
            }
          }
        }
      }
    }
  }
}
MOTION
Frames:	15
Frame Time:	0.04
33.0329 95.8743 -28.5419 0.531609 -0.943039 1.43761 -0.253228 2.1355 -0.324756 4.78632 -1.98839 7.04551 -0.695482 6.36377 -10.5571 5.51137 -1.55289 -0.208092 -1.34047 -5.32466 2.67258 -3.36623 -2.68748 -1.41279 0.0675978 10.7415 0.458008 -5.65561 -9.79301 2.17494 2.15345 -7.32589 2.1996 -0.463677 4.28911 -0.641663 -0.463677 4.2891 -0.641663 1.37687 -8.6553 -2.6114 -26.0348 8.94816 2.09955 -57.0483 45.2698 4.11199 17.4257 1.96681 -22.2952 8.85039 1.97905 -4.05838 -8.82781e-032 -3.18055e-015 -1.59028e-015 -0 -3.18056e-015 -0 26.5358 15.6689 14.7004 50.1973 37.5208 5.06013 -7.90747 8.46657 4.97082 -7.3684 11.8073 10.7559 3.18055e-015 1.59028e-015 -3.97569e-016 6.36111e-015 0 -3.97569e-016 -1.05082 -4.08621 -2.02189 
33.0484 95.8706 -28.5647 0.62167 -0.865874 1.3699 -0.253732 2.1355 -0.311229 4.66145 -2.00364 6.86665 -0.682099 6.20436 -10.4064 5.63582 -1.35383 -0.21894 -1.32241 -5.44843 2.67799 -3.47143 -2.86826 -1.43301 0.0756067 10.9108 0.458266 -5.64257 -9.87088 2.23391 2.1538 -7.31439 2.19955 -0.495482 4.27598 -0.613932 -0.495921 4.27598 -0.613805 1.36862 -8.76792 -2.63215 -26.0555 9.05064 2.13889 -56.9694 45.2392 4.00331 17.4059 1.98055 -22.2559 8.88207 1.98024 -3.99439 -6.36111e-015 0 -0 -3.18055e-015 0 -1.59028e-015 26.4757 15.8006 14.7866 50.5819 37.4749 4.74413 -7.97464 8.20021 5.14687 -7.45774 11.8993 10.7312 -0 -3.18055e-015 -0 -4.41391e-032 -3.18056e-015 -7.95139e-016 -1.04391 -4.08328 -2.045 
33.038 95.8646 -28.5509 0.607746 -0.911804 1.35073 -0.24949 2.15119 -0.290928 4.65128 -1.97727 6.96286 -0.64931 6.22165 -10.6037 5.86325 -1.22841 -0.230667 -1.30078 -5.59784 2.67895 -3.45182 -2.85364 -1.44305 0.0639806 10.9601 0.458343 -5.63961 -9.89518 2.2457 2.15358 -7.30919 2.18914 -0.488433 4.30359 -0.57418 -0.488537 4.30359 -0.573707 1.38057 -8.80875 -2.65512 -26.0674 9.09689 2.10646 -56.9332 45.2959 3.90398 17.3905 1.94879 -22.2234 8.83667 2.06219 -3.9493 -3.18055e-015 -3.18055e-015 -0 -3.18055e-015 3.18056e-015 -0 26.3596 15.8356 14.8071 51.0487 37.332 4.40803 -8.05717 8.16078 5.23204 -7.09774 11.6689 10.5913 6.36111e-015 0 -7.95139e-016 6.36111e-015 0 -7.95139e-016 -1.05043 -4.05309 -2.06508 
33.0615 95.8657 -28.5807 0.722542 -0.763676 1.31454 -0.272433 2.11806 -0.289963 4.52021 -2.0184 6.61548 -0.656004 6.02936 -10.1968 5.81712 -1.13942 -0.232429 -1.28979 -5.58251 2.67517 -3.58578 -3.07742 -1.41393 0.115243 11.1411 0.433101 -5.6378 -9.9761 2.23766 2.15715 -7.31187 2.20675 -0.540327 4.23745 -0.567544 -0.54031 4.23746 -0.567541 1.44326 -8.7729 -2.64349 -26.0819 9.02723 2.20809 -57.0335 45.4231 3.92455 17.4679 1.98375 -22.2165 8.85087 2.07268 -4.00365 -6.36111e-015 0 -0 -3.18055e-015 3.18056e-015 -0 26.3265 15.7978 14.8019 51.391 37.2925 3.76246 -8.12932 8.15501 5.57195 -6.7558 11.2589 10.4414 -1.59028e-015 -3.18055e-015 7.95139e-016 -3.18055e-015 -1.59028e-015 1.19271e-015 -1.05019 -4.0608 -2.03619 
33.0386 95.8663 -28.544 0.666474 -0.813062 1.33173 -0.271411 2.11691 -0.289242 4.5949 -1.98413 6.76925 -0.633304 6.11344 -10.3465 5.74367 -1.25327 -0.233533 -1.28839 -5.55562 2.6627 -3.51384 -2.95394 -1.42091 0.112692 11.0397 0.432581 -5.64099 -9.93464 2.22456 2.15822 -7.30898 2.20658 -0.524192 4.23769 -0.586447 -0.52419 4.23768 -0.586433 1.44627 -8.66057 -2.62895 -26.1042 8.88774 2.29181 -57.1137 45.4217 4.01073 17.4686 1.95052 -22.2885 8.93791 2.00753 -4.06198 -0 -6.36111e-015 -0 -0 -3.18056e-015 -0 26.3666 15.6954 14.8217 51.7298 37.2972 2.59447 -8.29855 8.08395 6.60532 -6.90722 11.3655 10.2661 1.59028e-015 1.59028e-015 3.97569e-016 3.18055e-015 1.59028e-015 -3.97569e-016 -0.975924 -4.10179 -2.03366 
33.0232 95.8587 -28.5182 0.659655 -0.769874 1.35827 -0.270399 2.11226 -0.288744 4.59525 -2.0348 6.96275 -0.581764 6.16846 -10.5867 5.77513 -1.25421 -0.234101 -1.27555 -5.5809 2.65594 -3.49746 -2.9769 -1.35617 0.129303 11.055 0.427225 -5.67067 -9.9537 2.14936 2.1593 -7.30704 2.20626 -0.526236 4.22518 -0.569286 -0.526018 4.22517 -0.569581 1.51241 -8.62078 -2.68416 -26.1782 8.83133 2.30082 -57.1433 45.2285 4.05475 17.4687 2.1226 -22.3379 8.97312 1.95288 -4.0861 -3.18055e-015 0 1.59028e-015 -3.18055e-015 0 1.59028e-015 26.2843 15.6655 14.8436 52.0781 37.0923 1.279 -8.46667 7.87482 7.97389 -7.10051 11.9587 10.3947 1.59028e-015 0 7.95139e-016 3.18055e-015 -1.59028e-015 -3.97569e-016 -0.976477 -4.09758 -2.06975 
33.0204 95.8638 -28.5108 0.731441 -0.633004 1.3889 -0.286551 2.09168 -0.288452 4.52501 -2.08648 6.41598 -0.616996 6.00972 -10.0567 5.74538 -1.17369 -0.234286 -1.28857 -5.54927 2.67821 -3.56284 -3.14988 -1.27998 0.175431 11.1899 0.389099 -5.69563 -9.98567 2.07395 2.16018 -7.29934 2.20584 -0.563942 4.18474 -0.564252 -0.563955 4.18474 -0.564517 1.46435 -8.64828 -2.69608 -26.1397 8.8744 2.25291 -57.1613 45.1232 4.10899 17.4006 2.05394 -22.3259 8.96165 1.93027 -4.09281 3.18055e-015 6.36111e-015 -0 6.36111e-015 9.54167e-015 1.59028e-015 26.2997 15.6953 14.8583 52.5233 36.9276 -0.235818 -8.69065 7.8149 9.5372 -7.26582 12.2906 10.7133 -3.18055e-015 1.59028e-015 -0 -3.18055e-015 1.59028e-015 7.95139e-016 -0.916135 -4.05245 -2.10904 
33.0022 95.8706 -28.4725 0.716222 -0.600979 1.41152 -0.285031 2.09184 -0.288359 4.55503 -2.10814 6.34266 -0.585034 6.04076 -9.9264 5.40364 -1.39957 -0.207259 -1.38193 -5.33757 2.7335 -3.52312 -3.14352 -1.24084 0.164294 11.1588 0.370996 -5.70804 -9.95574 2.03495 2.16143 -7.29961 2.20549 -0.563762 4.18301 -0.566722 -0.563771 4.18303 -0.566972 1.36848 -8.7319 -2.67033 -26.0655 8.97008 2.25377 -57.1474 45.1234 4.14859 17.2661 1.85995 -22.2849 9.04402 2.0263 -3.97745 -3.18055e-015 -9.54166e-015 -1.59028e-015 -3.18055e-015 -6.36111e-015 -1.59028e-015 26.4546 15.7654 14.7817 52.8509 36.7007 -1.72182 -8.70825 7.74682 10.9737 -7.57926 12.5655 11.0736 -1.59028e-015 1.59028e-015 -1.19271e-015 -1.59028e-015 4.77083e-015 -0 -0.818813 -3.90688 -2.12293 
32.9298 95.861 -28.3847 0.595334 -0.696439 1.49397 -0.26466 2.11367 -0.29306 4.76129 -2.14109 7.15073 -0.560247 6.37835 -10.787 5.32861 -1.65487 -0.192577 -1.41078 -5.29379 2.76411 -3.33604 -2.90357 -1.26486 0.114246 10.9476 0.391604 -5.74687 -9.91088 1.93542 2.16285 -7.3015 2.20526 -0.519057 4.22863 -0.576112 -0.519056 4.22863 -0.576124 1.25259 -8.78154 -2.66375 -25.9294 9.03104 2.25813 -57.1514 45.1358 4.11364 17.2835 1.95217 -22.1807 8.92817 2.01423 -3.99209 1.76556e-031 -6.36111e-015 1.59028e-015 1.76556e-031 -3.18056e-015 3.18055e-015 26.5401 15.8365 14.8527 53.3389 36.6263 -3.55643 -8.81801 7.06562 12.736 -7.65225 12.3546 11.3053 0 1.59028e-015 -0 1.10348e-032 -1.59028e-015 3.97569e-016 -0.738085 -3.83291 -2.15654 
32.8538 95.8623 -28.3031 0.431418 -0.810178 1.59069 -0.221883 2.15105 -0.290415 5.0301 -2.16039 7.29937 -0.661198 6.67591 -10.9453 5.20235 -1.95724 -0.17325 -1.44452 -5.1655 2.76645 -3.13006 -2.6329 -1.32065 0.0638007 10.676 0.39602 -5.75789 -9.80817 1.90083 2.16639 -7.33564 2.21099 -0.433382 4.30319 -0.574524 -0.433382 4.30319 -0.574524 0.895016 -9.1632 -2.68108 -25.6417 9.39098 2.44763 -57.0468 45.2478 3.91417 17.2537 1.91888 -22.0809 8.83736 2.00901 -3.9889 -0 -9.54166e-015 -0 -0 -6.36111e-015 -0 26.7296 16.2927 15.0919 53.6844 35.8135 -5.99904 -8.94635 5.88049 15.3458 -8.29911 13.1878 13.1205 8.82781e-032 3.18055e-015 -1.59028e-015 3.18055e-015 3.18056e-015 -1.98785e-015 -0.479146 -3.51237 -2.29671 
32.9205 95.8707 -28.3662 0.65236 -0.501711 1.49437 -0.274182 2.1218 -0.226588 4.79934 -2.35113 6.77582 -0.703844 6.43165 -10.272 4.93791 -1.96252 -0.170088 -1.49494 -4.96466 2.7966 -3.40747 -3.11478 -1.18489 0.19705 10.9865 0.233962 -5.7484 -9.9089 1.86721 2.17105 -7.34704 2.22896 -0.540515 4.24467 -0.443463 -0.540514 4.24466 -0.443463 0.796362 -9.55561 -2.79472 -25.5196 9.70968 2.70631 -56.8829 45.1871 3.54029 17.2798 1.9397 -22.0421 8.77991 2.05103 -3.9855 -6.36111e-015 0 -1.59028e-015 -3.18055e-015 0 -3.18055e-015 27.2098 16.8139 15.1261 53.3167 34.2696 -9.02154 -10.4256 5.314 19.265 -9.69821 15.5338 16.5204 8.82781e-032 -1.59028e-015 3.18055e-015 1.10348e-032 -1.59028e-015 3.97569e-016 -0.328064 -3.39847 -2.46963 
33.0069 95.8572 -28.3916 0.791017 -0.335363 1.4778 -0.310487 2.09515 -0.180773 4.59572 -2.53522 7.04435 -0.588807 6.49217 -10.5643 4.93795 -1.98187 -0.166814 -1.51181 -4.9602 2.80761 -3.62157 -3.40267 -1.07 0.32059 11.2668 0.0847362 -5.72219 -10.0151 1.81175 2.17641 -7.37812 2.24055 -0.614402 4.1912 -0.349649 -0.614639 4.19121 -0.350098 0.945159 -9.58858 -2.93148 -25.4759 9.69226 2.77468 -57.046 44.8673 3.44981 17.3535 2.156 -22.1386 9.00809 2.13629 -4.06141 -3.18055e-015 -3.18055e-015 -1.59028e-015 -3.18055e-015 0 -1.59028e-015 27.2575 16.948 15.2234 52.7915 31.5139 -11.2948 -13.1199 5.95166 23.4051 -13.4838 18.2047 19.6965 -6.36111e-015 -3.97569e-016 -5.96354e-016 -3.18055e-015 3.97569e-016 -5.96354e-016 -0.453883 -3.45668 -2.52636 
33.0715 95.8828 -28.4007 0.857031 -0.278961 1.59058 -0.325054 2.08063 -0.215792 4.52779 -2.44639 6.7231 -0.68813 6.17997 -10.2611 4.81614 -1.88525 -0.166181 -1.51588 -4.86221 2.81718 -3.70574 -3.40353 -1.02324 0.343221 11.1944 0.0763996 -5.74965 -9.91014 1.68231 2.19259 -7.43343 2.25133 -0.642928 4.16225 -0.420228 -0.642915 4.16226 -0.420202 1.00098 -9.55046 -2.89744 -25.392 9.63633 2.83127 -57.284 44.6537 3.6016 17.5238 2.35078 -22.3639 9.03345 2.1012 -4.18602 -3.18055e-015 -6.36111e-015 -0 -3.18055e-015 -6.36111e-015 -1.59028e-015 27.1454 16.9109 15.2841 51.597 27.9814 -12.3874 -15.2412 4.70566 27.5565 -17.6133 19.2644 21.8698 6.36111e-015 -1.59028e-015 7.95139e-016 3.18055e-015 -7.95139e-016 1.78906e-015 -0.435507 -3.43218 -2.49049 
33.1586 95.892 -28.4215 0.932041 -0.162185 1.74489 -0.335179 2.06934 -0.253679 4.41322 -2.52694 6.483 -0.732119 6.0429 -10.1223 4.82243 -1.80676 -0.165919 -1.55411 -4.83053 2.8339 -3.79825 -3.51991 -1.00723 0.314364 11.2467 0.104562 -5.80062 -9.88837 1.53855 2.20328 -7.45704 2.25382 -0.663803 4.14019 -0.493185 -0.662961 4.14018 -0.49474 0.930975 -9.5145 -2.86853 -25.355 9.60084 2.85818 -57.1319 44.8139 3.54943 17.6297 2.40208 -22.4515 8.86255 1.99081 -4.36531 -6.36111e-015 3.18055e-015 -0 -6.36111e-015 0 1.59028e-015 26.7713 16.8465 15.494 51.074 25.2292 -14.4437 -19.1204 0.627208 34.7017 -19.9568 19.8632 22.7719 -3.18055e-015 0 -3.97569e-016 1.10348e-032 3.97569e-016 -1.59028e-015 -0.293614 -3.47745 -2.50788 
33.3091 95.9044 -28.491 1.16808 0.135221 1.84638 -0.384298 2.0124 -0.255422 4.07108 -2.63004 5.68909 -0.744603 5.60728 -9.40142 4.80771 -1.54984 -0.165793 -1.55499 -4.79576 2.81636 -4.10619 -3.90236 -0.852872 0.401491 11.4968 0.0842679 -5.86656 -9.91223 1.2857 2.21619 -7.50699 2.28303 -0.760689 4.02644 -0.493472 -0.760449 4.02643 -0.49727 1.0235 -9.39362 -2.92622 -25.5544 9.45483 2.8769 -56.9417 45.1802 3.56114 17.6727 2.18538 -22.3214 8.9484 2.00084 -4.26471 -3.18055e-015 0 -1.59028e-015 0 0 -1.59028e-015 26.0618 16.6557 15.696 50.2098 19.6707 -15.1515 -20.9889 -3.26731 43.2172 -24.1382 21.395 25.2401 9.54166e-015 -1.59028e-015 -1.19271e-015 3.18055e-015 -3.97569e-016 3.97569e-016 -0.347607 -3.57798 -2.52922 
